<?xml version="1.0" encoding="utf-8"?>
<!-- Generator: Adobe Illustrator 20.1.0, SVG Export Plug-In . SVG Version: 6.00 Build 0)  -->
<svg version="1.1" xmlns="http://www.w3.org/2000/svg" xmlns:xlink="http://www.w3.org/1999/xlink" x="0px" y="0px"
	 viewBox="0 0 566.8 154" style="enable-background:new 0 0 566.8 154;" xml:space="preserve">
<style type="text/css">
	.st0{fill:#4D4C4C;}
</style>
<g id="TITLE">
	<g>
		<path class="st0" d="M74.3,60.8l1.2,21h-3.6c-6.2-13-8.5-17.5-13.5-17.5h-1.9v44.3c0,4.1,1.1,4.4,6.3,5v3.6H32.5v-3.6
			c5.2-0.6,6.3-0.9,6.3-5V64.2h-1.9c-5,0-7.3,4.5-13.5,17.5h-3.6l1.2-21H74.3z"/>
		<path class="st0" d="M82.4,62.8l-4.3-2.2v-2.7l18-3.6h2.8v26.6c2.9-3.8,7.5-8.1,15-8.1c7.8,0,12.4,4.3,12.4,13.2v25
			c0,2.4,1.3,2.6,4.3,2.9v3.4h-24.8v-3.4c3-0.2,4-0.5,4-2.9V87.3c0-3-1-5-5-5c-2.2,0-4.1,0.4-5.9,1v27.5c0,2.4,1,2.6,4,2.9v3.4H78.1
			v-3.4c3-0.2,4.3-0.5,4.3-2.9V62.8z"/>
		<path class="st0" d="M173.2,90.7v2h-25.4c0,8.8,5,14.4,12,14.4c5.1,0,8.9-1.7,12-5.6l1.7,1c-2.2,9.3-8.6,15.3-19.1,15.3
			c-12,0-21.5-7.6-21.5-21.7c0-14.5,10.4-23.5,22.2-23.5C167.1,72.7,173.2,80.2,173.2,90.7z M147.9,88.8h11.3
			c0-7.9-1.3-12.5-5.1-12.5C150,76.3,148.2,81.2,147.9,88.8z"/>
		<path class="st0" d="M190,117.1v-3.6c5.2-0.6,5.5-1.3,5.5-5.4V69.8c0-4.1-0.3-4.8-5.5-5.4v-3.6h27.2c22.7,0,33.5,11.7,33.5,27.8
			c0,17.9-11.9,28.6-31.5,28.6H190z M213.1,64.8v42.7c0,4.7,1.8,5.6,5.1,5.6h0.5c8.5,0,13.9-9.4,13.9-23.1
			c0-15.9-7.1-25.2-18.4-25.2H213.1z"/>
		<path class="st0" d="M293.4,108.3c0,1.6,0.2,3.3,2,3.3c1,0,2.1-0.2,2.5-0.4l0.6,2.4c-2.8,2.6-6.3,4.3-11.2,4.3
			c-4.9,0-8.4-2.4-9.9-6.7c-2.2,3.5-5.9,6.3-11.9,6.3c-6.9,0-11.8-3.8-11.8-10.9c0-7.1,4.8-10,10.4-11.9l13-4.5v-8.8
			c0-3.2-0.8-5.4-3.5-5.4c-2.8,0-3.9,2.5-3.9,6.2c0,1.9,0.3,3.9,0.8,5.9l-10,1.3c-2.4-0.8-4.2-2.8-4.2-5.9c0-7.6,7.9-10.9,17.9-10.9
			c11.7,0,18.9,3.5,18.9,14.3V108.3z M277.2,108.9V94l-3.2,1.2c-2.6,1-4.3,2.2-4.3,7c0,4,1.4,7.1,5.2,7.1
			C275.7,109.3,276.4,109.1,277.2,108.9z"/>
		<path class="st0" d="M320.8,110.9c0,2.4,1.3,2.6,4.3,2.9v3.4h-25v-3.4c3-0.2,4.3-0.5,4.3-2.9V82.8l-4.3-2.7v-2.5l17.9-4.8h2.9
			V110.9z M304.3,61.8c0-4.3,3.1-7.9,8.5-7.9c5.3,0,8.5,3.7,8.5,7.9c0,4.3-3.2,7.9-8.5,7.9C307.4,69.8,304.3,66.1,304.3,61.8z"/>
		<path class="st0" d="M348.6,110.9c0,2.4,1.3,2.6,4.3,2.9v3.4h-25v-3.4c3-0.2,4.3-0.5,4.3-2.9V62.8l-4.3-2.2v-2.7l18-3.6h2.8V110.9
			z"/>
		<path class="st0" d="M391.6,82.1c0.4-1.1,0.6-1.7,0.6-2.4c0-1.7-1-2.2-5.2-2.8v-3.4h15v3.4c-2.7,0.9-3.4,1.4-4.1,3.2l-18.6,43.7
			c-3.1,7.3-6.3,11.2-12,11.2c-3.3,0-5.7-1.3-6.9-3.2v-6.5c2.2,0.4,4,0.8,6.6,0.8c4.6,0,6.7-1.3,8.1-4.2l1.2-2.6l-18.8-39.2
			c-0.8-1.8-1.4-2.3-4.1-3.2v-3.4h27.5v3.4c-4.3,0.6-5.2,1.1-5.2,2.8c0,0.7,0.2,1.3,0.6,2.2l7.9,18.9L391.6,82.1z"/>
		<path class="st0" d="M466.9,64.7l0.3,14.5h-4.3c-2.1-9.6-6.1-14.9-13.4-14.9c-9.6,0-13.3,10.5-13.3,24c0,14.5,4.8,25,14.1,25
			c6.3,0,11.4-4.8,14.8-17.2h4.4l-1.4,16.3c-4.7,3.5-12.2,5.5-20.1,5.5c-18.7,0-30.2-10.3-30.2-27.4c0-18.9,14.1-30.6,31.1-30.6
			C456.2,60,462.3,61.6,466.9,64.7z"/>
		<path class="st0" d="M512.9,108.3c0,1.6,0.2,3.3,2,3.3c1,0,2.1-0.2,2.5-0.4l0.6,2.4c-2.8,2.6-6.3,4.3-11.2,4.3
			c-4.9,0-8.4-2.4-9.9-6.7c-2.2,3.5-5.9,6.3-11.9,6.3c-6.9,0-11.8-3.8-11.8-10.9c0-7.1,4.8-10,10.4-11.9l13-4.5v-8.8
			c0-3.2-0.8-5.4-3.5-5.4c-2.8,0-3.9,2.5-3.9,6.2c0,1.9,0.3,3.9,0.8,5.9l-10,1.3c-2.4-0.8-4.2-2.8-4.2-5.9c0-7.6,7.9-10.9,17.9-10.9
			c11.7,0,18.9,3.5,18.9,14.3V108.3z M496.7,108.9V94l-3.2,1.2c-2.6,1-4.3,2.2-4.3,7c0,4,1.4,7.1,5.2,7.1
			C495.3,109.3,495.9,109.1,496.7,108.9z"/>
		<path class="st0" d="M540.1,110.9c0,2.4,1.3,2.6,4.3,2.9v3.4h-25v-3.4c3-0.2,4.3-0.5,4.3-2.9V62.8l-4.3-2.2v-2.7l18-3.6h2.8V110.9
			z"/>
	</g>
	<g>
		<path class="st0" d="M21.6,19.7H23v8.6h11.3v-8.6h1.3v19.6h-1.3v-9.8H23v9.8h-1.3V19.7z"/>
		<path class="st0" d="M43.5,19.7h11.4v1.2h-10v7.4h7.5v1.2h-7.5v8.6h10.6v1.2H43.5V19.7z"/>
		<path class="st0" d="M62,19.7h6.4c4.3,0,6.6,1.9,6.6,5.1c0,3.2-1.9,4.7-4.8,5.2l5.1,9.4h-1.5l-5-9.2h-5.4v9.2H62V19.7z M68.3,29
			c3.4,0,5.4-1,5.4-4.1c0-2.9-2-3.9-5.4-3.9h-4.9v8H68.3z"/>
		<path class="st0" d="M82.2,19.7h11.4v1.2h-10v7.4H91v1.2h-7.5v8.6h10.6v1.2H82.2V19.7z"/>
		<path class="st0" d="M113.6,19.6h1.6l6.9,19.7h-1.4l-2.3-6.6h-8.1l-2.3,6.6h-1.4L113.6,19.6z M118,31.6l-3.6-10.4h-0.1l-3.6,10.4
			H118z"/>
		<path class="st0" d="M130.9,20.9h-6.4v-1.2h14.2v1.2h-6.4v18.4h-1.3V20.9z"/>
	</g>
</g>
<g id="LINE">
</g>
</svg>
