<?xml version="1.0" encoding="utf-8"?>
<!-- Generator: Adobe Illustrator 20.1.0, SVG Export Plug-In . SVG Version: 6.00 Build 0)  -->
<svg version="1.1" id="SIDE_TITLE" xmlns="http://www.w3.org/2000/svg" xmlns:xlink="http://www.w3.org/1999/xlink" x="0px" y="0px"
	 viewBox="0 0 357 460.5" style="enable-background:new 0 0 357 460.5;" xml:space="preserve">
<style type="text/css">
	.st0{fill:#4D4C4C;}
</style>
<g>
	<path class="st0" d="M339.1,29.7v2.1l-26,9.2v-1.9l8.7-3V25.4l-8.7-3v-1.8L339.1,29.7z M323.4,35.5l13.8-4.8v-0.1l-13.8-4.8V35.5z"
		/>
	<path class="st0" d="M331.5,43.5v1.8l-9.7,2.8c-2.5,0.7-4,1.2-6.4,1.8V50c2.7,0.7,4,1,6.4,1.8l9.7,2.7v1.7l-9.9,2.8
		c-2.3,0.7-3.7,1-6.2,1.7v0.1c2.5,0.7,3.8,1.1,6.1,1.8l10,2.9v1.7l-18.4-5.7v-1.6l16-4.5v-0.1l-16-4.6v-1.5L331.5,43.5z"/>
	<path class="st0" d="M317.4,70.6c3.5,0,6.1,3,7.7,12.6h1.1c2.8,0,4.2-1.5,4.2-4c0-3-1.2-5.1-3-7.1l1.1-1c2.1,2.3,3.5,4.6,3.5,8.2
		c0,3.8-2.2,5.6-5.6,5.6h-8.6c-2.2,0-3.6,0.1-4.6,0.5v-1.8c0.8-0.2,1.7-0.4,2.7-0.4c-1.9-2.2-3-4.7-3-7.5
		C312.8,72.5,314.6,70.6,317.4,70.6z M317.5,83.3h6.3c-1.6-9-3.8-11-6.4-11c-2.1,0-3.2,1.4-3.2,3.6
		C314.3,78.7,315.5,81.2,317.5,83.3z"/>
	<path class="st0" d="M331.5,91.7v1.7h-3.9v0.1c2.4,1.5,4.2,3.9,4.2,7.6v0.5l-1.6-0.3v-0.6c0-3.1-1.8-5.7-5.1-7.2h-12.1v-1.7H331.5z
		"/>
	<path class="st0" d="M322.3,104.2c6.4,0,9.6,3.5,9.6,7.8c0,2.5-1.4,4.7-3.1,6.2H339v1.7h-21.4c-2.2,0-3.6,0.1-4.6,0.6v-1.8
		c0.7-0.2,1.8-0.4,2.8-0.4c-1.6-1.6-3.1-3.5-3.1-6.3C312.8,107.7,315.9,104.2,322.3,104.2z M317.6,118.2h9.6
		c2.1-2.1,3.3-3.9,3.3-6.3c0-3.2-2.5-6-8.1-6c-5.6,0-8.1,2.8-8.1,6.1C314.3,114.5,315.5,116.1,317.6,118.2z"/>
	<path class="st0" d="M325,126.3v7.6h-1.7v-7.6H325z"/>
	<path class="st0" d="M339,136.9v1.8l-16.6,4.3c-2.5,0.7-5,1.3-6.7,1.6v0.1c1.6,0.4,4.2,0.9,6.7,1.6l16.7,4.1v2l-16.8,4.2
		c-2.4,0.6-4.7,1.2-6.5,1.5v0.1c2,0.5,4,1,6.4,1.6l16.9,4.4v1.7l-25.9-6.9v-1.8l23.5-5.8v-0.1l-23.5-5.8v-1.8L339,136.9z"/>
	<path class="st0" d="M331.5,171.3v1.7h-18.4v-1.7H331.5z M338.3,171.2v1.8h-2.1v-1.8H338.3z"/>
	<path class="st0" d="M331.5,180.1v1.7h-3c1.9,2,3.4,4.4,3.4,7.1c0,3.8-2.1,5.6-5.4,5.6h-13.3v-1.7h13.1c2.8,0,4.2-1.2,4.2-4
		c0-2.6-1.3-4.7-3.5-7h-13.8v-1.7H331.5z"/>
	<path class="st0" d="M331.5,201.2v1.7h-3c1.9,2,3.4,4.4,3.4,7.1c0,3.8-2.1,5.6-5.4,5.6h-13.3v-1.7h13.1c2.8,0,4.2-1.2,4.2-4
		c0-2.6-1.3-4.7-3.5-7h-13.8v-1.7H331.5z"/>
	<path class="st0" d="M331.5,222.4v1.7h-18.4v-1.7H331.5z M338.3,222.4v1.8h-2.1v-1.8H338.3z"/>
	<path class="st0" d="M331.5,231.2v1.7h-3c1.9,2,3.4,4.4,3.4,7.1c0,3.8-2.1,5.6-5.4,5.6h-13.3v-1.7h13.1c2.8,0,4.2-1.2,4.2-4
		c0-2.6-1.3-4.7-3.5-7h-13.8v-1.7H331.5z"/>
	<path class="st0" d="M310.8,250.3c1.9,0,3.4,1.3,4.3,3.5c0.5-1.2,1.2-1.8,2.4-1.8c1,0,1.9,0.8,2.5,2.1c1.1-1.7,3-2.7,5.3-2.7
		c4,0,6.7,3.2,6.7,7c0,2-0.7,3.8-1.9,5.1c0.7,1,1.4,2.7,1.6,4.2h-1.8c0-1.2-0.2-2.5-0.7-3.4c-1,0.8-2.3,1.3-3.9,1.3
		c-4.1,0-6.5-3.3-6.5-7c0-1.1,0.2-2.2,0.6-3.2c-0.4-1-0.9-1.6-1.7-1.6c-0.8,0-1.3,0.7-1.5,2.9l-0.4,4.3c-0.4,3.8-1.8,6.1-4.6,6.1
		c-3.2,0-5-3.4-5-8.2C306.1,253.1,307.9,250.3,310.8,250.3z M311,265.5c1.9,0,2.9-1.6,3.3-5.2l0.3-3.8c0-0.3,0.1-0.6,0.1-0.9
		c-0.7-2.4-2.2-3.6-3.8-3.6c-2,0-3.4,2.1-3.4,7.1C307.5,263,309,265.5,311,265.5z M325.3,263.9c3.2,0,5.2-2,5.2-5.4
		c0-3.3-2.1-5.4-5.2-5.4c-3,0-5.1,2.2-5.1,5.4C320.1,261.8,322.2,263.9,325.3,263.9z"/>
	<path class="st0" d="M339,281.9v8.4c0,5.6-2.5,8.7-6.7,8.7c-4.8,0-7.1-3.5-7.1-9v-6.4h-12.1v-1.8H339z M326.9,290.2
		c0,4.5,1.4,7.1,5.4,7.1c3.8,0,5.2-2.6,5.2-7.1v-6.5h-10.6V290.2z"/>
	<path class="st0" d="M318.2,303.8h13.3v1.7h-13.1c-2.8,0-4.2,1.2-4.2,4c0,2.6,1.3,4.7,3.5,7h13.8v1.7h-18.4v-1.7h3
		c-1.9-2-3.4-4.4-3.4-7.1C312.8,305.5,314.9,303.8,318.2,303.8z"/>
	<path class="st0" d="M315.8,326.7h-2.7V325H339v1.7h-10.3c1.7,1.6,3.2,3.5,3.2,6.3c0,4.2-3.1,7.7-9.6,7.7s-9.5-3.5-9.5-7.8
		C312.8,330.4,314.1,328.5,315.8,326.7z M322.3,339c5.6,0,8.1-2.8,8.1-6.1c0-2.5-1.2-4.2-3.3-6.2h-9.6c-2.1,2.1-3.3,3.9-3.3,6.3
		C314.3,336.2,316.7,339,322.3,339z"/>
	<path class="st0" d="M339,346.8v1.7h-25.9v-1.7H339z"/>
	<path class="st0" d="M331.5,355.8v1.7h-18.4v-1.7H331.5z M338.3,355.7v1.8h-2.1v-1.8H338.3z"/>
	<path class="st0" d="M316.2,363.3l0.9,1.2c-1.8,1.4-2.9,3.1-2.9,5.7c0,3.5,1.4,5.2,3.6,5.2s3.2-1.3,4.2-5.5
		c1.2-4.7,2.4-6.2,5.2-6.2c2.3,0,4.6,2.1,4.6,6.1c0,3-1.1,5-2.7,6.5l-1.2-1.1c1.5-1.4,2.4-3,2.4-5.4c0-3-1.5-4.3-3-4.3
		c-1.9,0-2.8,1-3.6,4.7c-1.3,5.2-2.5,7-5.8,7c-3.2,0-5.1-2.8-5.1-7C312.8,367,314.3,364.6,316.2,363.3z"/>
	<path class="st0" d="M339,383.1v1.7h-10.6c1.9,2,3.4,4.4,3.4,7.1c0,3.8-2.1,5.6-5.4,5.6h-13.3v-1.7h13.1c2.8,0,4.2-1.2,4.2-4
		c0-2.6-1.3-4.7-3.5-7h-13.8v-1.7H339z"/>
	<path class="st0" d="M331.5,404.4v1.7h-18.4v-1.7H331.5z M338.3,404.3v1.8h-2.1v-1.8H338.3z"/>
	<path class="st0" d="M331.5,413.2v1.7h-3c1.9,2,3.4,4.4,3.4,7.1c0,3.8-2.1,5.6-5.4,5.6h-13.3v-1.7h13.1c2.8,0,4.2-1.2,4.2-4
		c0-2.6-1.3-4.7-3.5-7h-13.8v-1.7H331.5z"/>
	<path class="st0" d="M310.8,432.2c1.9,0,3.4,1.3,4.3,3.5c0.5-1.2,1.2-1.8,2.4-1.8c1,0,1.9,0.8,2.5,2.1c1.1-1.7,3-2.7,5.3-2.7
		c4,0,6.7,3.2,6.7,7c0,2-0.7,3.8-1.9,5.1c0.7,1,1.4,2.7,1.6,4.2h-1.8c0-1.2-0.2-2.5-0.7-3.4c-1,0.8-2.3,1.3-3.9,1.3
		c-4.1,0-6.5-3.3-6.5-7c0-1.1,0.2-2.2,0.6-3.2c-0.4-1-0.9-1.6-1.7-1.6c-0.8,0-1.3,0.7-1.5,2.9l-0.4,4.3c-0.4,3.8-1.8,6.1-4.6,6.1
		c-3.2,0-5-3.4-5-8.2C306.1,435,307.9,432.2,310.8,432.2z M311,447.3c1.9,0,2.9-1.6,3.3-5.2l0.3-3.8c0-0.3,0.1-0.6,0.1-0.9
		c-0.7-2.4-2.2-3.6-3.8-3.6c-2,0-3.4,2.1-3.4,7.1C307.5,444.9,309,447.3,311,447.3z M325.3,445.8c3.2,0,5.2-2,5.2-5.4
		c0-3.3-2.1-5.4-5.2-5.4c-3,0-5.1,2.2-5.1,5.4C320.1,443.7,322.2,445.8,325.3,445.8z"/>
</g>
</svg>
