<?xml version="1.0" encoding="utf-8"?>
<!-- Generator: Adobe Illustrator 20.1.0, SVG Export Plug-In . SVG Version: 6.00 Build 0)  -->
<svg version="1.1" xmlns="http://www.w3.org/2000/svg" xmlns:xlink="http://www.w3.org/1999/xlink" x="0px" y="0px"
	 viewBox="0 0 960 560" style="enable-background:new 0 0 960 560;" xml:space="preserve">
<style type="text/css">
	.st0{fill:url(#SVGID_1_);}
	.st1{fill:#4D4C4C;}
	.st2{font-family:'BentonSansComp-Light';}
	.st3{font-size:24.4843px;}
	.st4{font-family:'BentonSans-Medium';}
	.st5{font-size:28.1919px;}
</style>
<g id="CIRCLE">
</g>
<g id="INSIDE_CIRCLE">
	<g>
		<linearGradient id="SVGID_1_" gradientUnits="userSpaceOnUse" x1="399.4752" y1="220.3149" x2="560.5248" y2="220.3149">
			<stop  offset="0" style="stop-color:#9FD6C8"/>
			<stop  offset="1" style="stop-color:#2899D5"/>
		</linearGradient>
		<path class="st0" d="M524,181.7c-1.5,0.1-3,0.2-4.4,0.4c-2,0.3-4.1,0.7-6.1,1.2c-3.9,1-7.6,2.5-11.1,4.5
			c-7.2,4.2-12.5,10.2-15.9,17.9c-0.6,1.3-1.1,2.7-1.5,4.1c0,0.1,0,0.2-0.2,0.3c0-0.1-0.1-0.3-0.1-0.4c-0.4-1.6-0.9-3.2-1.5-4.8
			c-1.7-4.4-4.3-8.4-7.7-11.7c-3.4-3.4-7.4-5.8-11.9-7.4c-3.4-1.3-6.9-2-10.5-2.3c-1.7-0.2-3.4-0.2-5.2-0.2c-15.9,0-31.8,0-47.8,0
			c-0.2,0-0.3,0-0.5,0c-0.1,0-0.1,0-0.2,0c0,0.1,0,0.2,0,0.3c0,1.5,0,3,0,4.5c0,0.1,0,0.2,0,0.3c0.2,0,0.3,0,0.4,0
			c0.9,0,1.7,0.1,2.6,0.2c1,0.2,2,0.4,2.9,0.9c1.2,0.6,2.2,1.6,2.7,2.8c0.4,0.8,0.6,1.7,0.7,2.6c0.2,1.1,0.2,2.1,0.2,3.2
			c0,15,0,30,0,45c0,1,0,2-0.2,3c-0.1,0.9-0.4,1.8-0.7,2.6c-0.6,1.3-1.6,2.3-2.9,2.9c-0.5,0.2-1,0.4-1.5,0.6
			c-1.2,0.3-2.3,0.4-3.5,0.5c-0.1,0-0.1,0-0.2,0c-0.2,0-0.3,0-0.5,0c0,0.1,0,0.2,0,0.3c0,1.5,0,3,0,4.5c0,0.1,0,0.2,0.1,0.3
			c0.2,0,0.3,0,0.5,0l6.7-0.2c3.8-2.6,7.4-8.8,8.8-11.4c0.4-0.7,1-2.4,1-2.4s3.1-9.4,6-13.4c0,0,0,0,0,0c0.1-0.2,0.3-0.4,0.4-0.5
			c0,0,0,0,0,0c0.1-0.1,0.2-0.3,0.3-0.4c0-0.1,0.1-0.1,0.1-0.2c0.1-0.1,0.1-0.1,0.2-0.2c0.1-0.1,0.2-0.2,0.3-0.3c0,0,0,0,0.1-0.1
			c4.4-5.1,10.4-8.3,16.7-11c1.6-0.7,3.2-1.3,4.8-2c3.9-1.7,8-3.5,11.9-5.4c2.1-1,4.1-2,6.1-3.1c1-0.5,4.7-3,4.7-3l0,0.1
			c0,0,0.1,0,0.1,0l-26,31.9c0,0,0,0,0,0l0,0c-0.5-0.2-1.1-0.4-1.7-0.4c-2,0.1-3.5,1.7-3.5,3.7c0,1,0.5,2,1.3,2.6
			c0.8,0.6,1.8,0.9,2.8,0.7c1.9-0.3,3.2-2.2,2.9-4.1c-0.1-0.6-0.3-1.1-0.7-1.6l0,0c0,0,0,0,0,0l25.9-31.9c0,0,0,0,0,0.1l0-0.1
			c0,0-1.6,4.1-1.9,5.2c-0.7,2.2-1.2,4.4-1.8,6.6c-1.1,4.2-2,8.6-2.9,12.8c-0.4,1.7-0.7,3.4-1,5.1c-1.4,6.7-3.3,13.3-7.4,18.6
			c0,0,0,0-0.1,0.1c-0.1,0.1-0.2,0.2-0.3,0.3c-0.1,0.1-0.1,0.2-0.2,0.2c0,0.1-0.1,0.1-0.1,0.2c-0.1,0.1-0.2,0.2-0.3,0.4c0,0,0,0,0,0
			c-0.1,0.2-0.3,0.3-0.4,0.5h0c0,0,0,0,0,0c-0.4,0.5-1,1-1.6,1.5l4.3-0.1c2.9-0.6,5.7-1.5,8.4-2.7c3.5-1.5,6.8-3.5,9.7-6
			c4.3-3.7,7.4-8.2,9.6-13.5c0.4-1,0.8-2.1,1.1-3.1c0-0.1,0-0.2,0.1-0.1c0,0,0,0,0,0c0.1,0.3,0.1,0.5,0.2,0.8
			c1.4,5.1,3.8,9.5,7.3,13.4c2.5,2.8,5.5,5.1,8.7,7c3.9,2.3,8.1,3.9,12.4,5c3.2,0.8,6.4,1.3,9.6,1.6c1.6,0.1,3.2,0.2,4.8,0.2
			c1.4,0,2.8,0,4.3-0.1c2.1-0.1,4.2-0.3,6.2-0.5c1.8-0.2,3.7-0.5,5.5-0.9c3.1-0.6,6.2-1.4,9.2-2.5c2.6-0.9,5.1-2,7.5-3.3
			c0.1-0.1,0.3-0.2,0.4-0.3v-0.5v-17.1c0-0.1,0-0.2,0-0.3c0-0.1,0-0.2-0.1-0.3c-2.7,0-5.3,0-7.9,0c-0.1,0-0.1,0-0.2,0c0,0,0,0,0,0.1
			c-0.1,0.2-0.1,0.3-0.2,0.5c-0.7,2.3-1.5,4.5-2.6,6.7c-1.2,2.4-2.7,4.6-4.5,6.5c-2.2,2.4-4.8,4.2-7.8,5.4c-2.4,1-5,1.4-7.6,1.5
			c-1.8,0-3.6-0.1-5.4-0.5c-3.7-0.8-6.9-2.6-9.7-5.1c-2.1-1.9-3.7-4-5.1-6.4c-1.5-2.7-2.7-5.5-3.5-8.4c-0.6-2.1-1-4.2-1.3-6.3
			c-0.2-1.3-0.3-2.7-0.4-4c-0.1-1.2-0.1-2.4-0.1-3.6c-0.1-2.2,0-4.4,0.2-6.7c0.2-1.8,0.4-3.6,0.8-5.4c0.5-2.4,1.2-4.7,2.1-6.9
			c1.1-2.5,2.5-4.9,4.3-7c2.3-2.6,5-4.5,8.3-5.6c1.8-0.6,3.7-1,5.7-1.1c2.2-0.1,4.4,0.1,6.5,0.6c2.9,0.7,5.6,1.9,8,3.6
			c2.5,1.8,4.7,3.9,6.5,6.3c1.9,2.4,3.4,5,4.7,7.8c0.1,0.2,0.2,0.3,0.2,0.5c0.1,0,0.1,0,0.2,0c2.5,0,5.1,0,7.6,0c0.1,0,0.2,0,0.3,0
			c0-0.1,0-0.1,0-0.2c-0.1-1.1-0.3-2.1-0.4-3.2c-0.1-1.1-0.3-2.2-0.4-3.3c-0.1-1.1-0.3-2.2-0.4-3.3c-0.1-1.1-0.3-2.2-0.4-3.3
			c-0.1-1.2-0.3-2.4-0.4-3.5c0-0.2-0.1-0.3-0.1-0.5c-0.2-0.1-0.3-0.1-0.4-0.2c-3-1.4-6-2.5-9.1-3.5c-3-0.9-6.1-1.6-9.2-2.1
			c-1.6-0.3-3.2-0.5-4.9-0.6c-1.3-0.1-2.6-0.2-3.9-0.2c-0.8,0-1.7,0-2.5,0C526.3,181.6,525.2,181.6,524,181.7"/>
		<text transform="matrix(1 0 0 1 433.1628 290.6489)"><tspan x="0" y="0" class="st1 st2 st3">2</tspan><tspan x="9.8" y="0" class="st1 st2 st3">0</tspan><tspan x="20.7" y="0" class="st1 st2 st3">1</tspan><tspan x="27.9" y="0" class="st1 st2 st3">7 - 2</tspan><tspan x="61" y="0" class="st1 st2 st3">0</tspan><tspan x="71.9" y="0" class="st1 st2 st3">18 </tspan></text>
		<text transform="matrix(1 0 0 1 407.9285 322.0981)"><tspan x="0" y="0" class="st1 st4 st5">MEDI</tspan><tspan x="71.9" y="0" class="st1 st4 st5">A</tspan><tspan x="90.7" y="0" class="st1 st4 st5"> KIT</tspan></text>
	</g>
</g>
</svg>
